<svg xmlns="http://www.w3.org/2000/svg" width="97.872" height="74.065" viewBox="0 0 97.872 74.065">
  <g id="quote" transform="translate(-5 -9)" opacity="0.2">
    <g id="Artboard-Copy" transform="translate(5 9.001)">
      <path id="quote2" d="M508.869,68.693a14.871,14.871,0,0,0-3.431-5.634,16.878,16.878,0,0,0-6.645-4.148,31.909,31.909,0,0,0-10.626-1.487h-5.9a32.085,32.085,0,0,1,7.766-18.556q6.7-7.642,18.582-13.424L503.812,18A72.367,72.367,0,0,0,477.05,37.519q-11.114,12.883-11.1,25.539,0,13.6,6.454,21.315,6.471,7.7,18.527,7.692a19.194,19.194,0,0,0,13.292-5.1q5.642-5.091,5.647-11.9a20.37,20.37,0,0,0-1-6.37m-53.951,0a14.918,14.918,0,0,0-3.436-5.634,16.821,16.821,0,0,0-6.645-4.148,31.859,31.859,0,0,0-10.623-1.487h-5.9a32.117,32.117,0,0,1,7.764-18.556q6.705-7.642,18.585-13.424L449.858,18A72.367,72.367,0,0,0,423.1,37.519Q411.983,50.4,412,63.059c0,9.068,2.135,16.181,6.452,21.315s10.488,7.692,18.527,7.692a19.2,19.2,0,0,0,13.295-5.1q5.642-5.091,5.645-11.9a20.6,20.6,0,0,0-1-6.37" transform="translate(-412 -18.001)" fill="#fff" fill-rule="evenodd"/>
    </g>
  </g>
</svg>
